<svg width="80" height="44" viewBox="0 0 80 44" fill="none" xmlns="http://www.w3.org/2000/svg">
<g clip-path="url(#clip0_240_103)">
<g clip-path="url(#clip1_240_103)">
<g clip-path="url(#clip2_240_103)">
<path d="M12.6286 17.7822C10.2389 17.1067 6.41735 16.2081 2.23465 17.3221C1.45769 17.529 0.929986 17.8713 0.56016 18.5209C0.375788 18.8454 0.206014 19.1965 0.298471 19.5545C0.378491 19.8585 0.813739 19.9653 1.16302 20.021C1.49932 20.0739 2.26114 20.1139 2.46659 19.8693C2.57366 19.7412 2.57635 19.3816 2.01838 19.2645C1.81237 19.2213 1.25169 19.2018 1.20898 19.1074C1.20898 19.1074 1.22844 19.042 1.53608 18.9469C1.6718 18.9049 2.66881 18.495 5.39276 18.583C8.63198 18.6872 11.4613 19.4448 14.4535 20.6215C17.3812 21.7727 20.6713 23.8549 22.601 26.334C23.3309 27.272 24.237 28.8132 24.3566 30.1108C24.6459 33.2622 21.564 35.9215 15.3066 35.7083C14.2372 35.6716 12.9375 35.4183 12.9375 35.4183L12.8076 29.3342C12.8076 29.3342 15.4553 29.3142 18.3826 30.2766C18.6319 30.3586 18.8822 30.5211 18.9049 30.7625C18.9211 30.9483 18.7745 31.1076 18.6097 31.2512C18.3064 31.5158 17.889 31.6308 17.7971 31.7432C17.7306 31.8241 17.73 31.9478 17.8166 32.0158C18.0366 32.1859 18.5767 32.3015 18.9411 32.2696C19.6792 32.2043 20.1701 31.7782 20.541 31.2199C20.9362 30.6248 21.1612 29.1117 19.0584 28.1468C16.3404 26.8988 12.7881 27.1337 12.7881 27.1337C12.7881 27.1337 12.7698 26.3087 12.733 25.7595C12.672 24.8588 12.4221 23.0882 11.6003 22.5779C11.45 22.4855 11.2656 22.4747 11.1618 22.6145C11.0024 22.8225 10.8455 23.6147 10.8109 23.8204C10.5016 25.6623 10.5179 27.3142 10.5016 27.3374C10.4925 27.3482 10.4827 27.3573 10.4698 27.367C10.4373 27.3875 8.47302 27.6219 6.57685 28.4421C5.8199 28.7694 4.73745 29.3602 4.40926 30.1205C3.98591 31.1016 4.73043 32.1756 5.98751 33.3648C7.05211 34.3718 8.6217 35.4319 9.7847 35.9805C10.081 36.1203 10.4292 36.2926 10.4292 36.2926C10.4292 36.2926 10.5044 36.9956 10.5649 37.4017C10.7833 38.8657 11.901 38.6524 12.2091 38.5897C12.7098 38.4876 12.806 38.155 12.8752 37.7695C12.9131 37.5589 12.8975 37.2543 12.8975 37.2543C12.8975 37.2543 13.6543 37.4287 14.1626 37.521C15.6408 37.7938 17.2467 37.8407 18.6384 37.6512C24.2046 36.8914 25.6072 34.2725 26.0505 33.5731C26.821 32.3571 28.4554 28.9692 23.532 23.9403C22.4074 22.7911 19.1563 19.6268 12.6276 17.7816L12.6286 17.7822ZM5.27813 31.4883C5.07592 31.2798 4.92021 31.0541 4.96778 30.7814C5.0132 30.5184 5.52901 30.2862 5.78962 30.2096C8.30054 29.4703 10.4287 29.4325 10.4287 29.4325C10.4287 29.4325 10.4087 30.3322 10.4043 31.242C10.3962 32.9657 10.4416 34.7152 10.4416 34.7152C10.4416 34.7152 7.60956 33.8912 5.27813 31.4877V31.4883Z" fill="white"/>
<path d="M30.781 25.1562C31.9581 24.6955 32.8669 24.0346 33.7872 23.0939C34.3247 22.548 34.7961 21.65 34.6231 20.8319C34.5366 20.4253 34.3506 20.145 34.0105 19.8523C33.8413 19.7071 33.4535 19.5019 33.1384 19.4392C33.047 19.4209 32.9496 19.4139 32.9102 19.3885C32.8653 19.3599 32.8296 19.301 32.7859 19.2465C32.5799 18.9852 32.1706 18.7351 31.8764 18.6341C30.9734 18.322 29.7688 18.5574 28.9465 18.9035C28.077 19.2713 27.2752 19.8103 26.6659 20.4626C25.067 22.1743 25.7695 23.5302 25.9116 23.783C26.0327 23.9968 26.2571 24.2274 26.3063 24.451C26.3361 24.5837 26.3096 24.7576 26.315 24.9148C26.3263 25.2749 26.4832 25.6464 26.754 25.8857C26.9481 26.0563 27.2271 26.1071 27.5078 25.6821C27.6018 25.5396 27.7586 25.2496 27.7586 25.2496C27.7586 25.2496 28.0846 25.438 28.8724 25.4931C29.4596 25.5341 30.2642 25.3576 30.781 25.1562ZM27.0092 23.0875C27.0092 23.0875 26.9547 22.9735 26.9195 22.8877C26.6772 22.2861 27.212 21.6078 27.7002 21.1921C28.6507 20.3832 29.4596 20.4026 29.4596 20.4026C29.4596 20.4026 29.2661 20.5576 29.1054 20.698C27.7181 21.9102 27.0092 23.0875 27.0092 23.0875ZM29.0898 23.0653C29.671 22.3169 30.7469 21.3881 31.4974 20.941C32.0851 20.5905 32.5928 20.4944 32.9719 20.6608C33.1967 20.7595 33.3769 20.9632 33.4077 21.2358C33.5082 22.0798 32.5328 22.7851 31.8807 23.1653C30.3987 24.0287 28.6459 23.8331 28.601 23.7548C28.5945 23.7343 28.9557 23.2418 29.0903 23.0653H29.0898Z" fill="white"/>
<path d="M64.3751 27.6515C62.4886 26.3442 59.4452 30.4898 58.1064 32.5454C57.9069 31.499 58.6157 30.1711 58.6157 30.1711C58.6157 30.1711 59.7523 28.2055 59.9133 27.8065C60.0685 27.4048 60.1588 26.5791 59.9636 26.4971C59.7863 26.4155 59.4802 26.6801 59.4802 26.6801C56.9277 28.9681 56.5709 31.5066 56.5709 31.5066C56.3297 32.8733 56.6114 33.8334 57.0256 34.5051C55.6068 37.5242 54.9126 40.1577 55.0974 41.7145C55.2694 42.8998 56.1199 43.7568 56.6357 43.9376C57.157 44.1548 57.2494 43.5289 57.2494 43.5289C57.6717 40.3084 58.4092 38.1554 59.2878 36.0273C61.9485 36.638 63.9506 34.051 64.6594 32.815C65.0763 32.073 65.3006 31.0821 65.3006 30.15C65.3006 29.0884 65.0082 28.1035 64.3751 27.651V27.6515ZM62.6411 32.7852C62.3356 33.0747 61.3245 33.6428 60.2762 33.7604C61.2753 31.8262 62.5161 30.4028 63.2039 29.6436C64.0041 28.7433 64.109 29.561 64.109 29.561C64.2956 31.1496 63.1379 32.3452 62.6405 32.7858L62.6411 32.7852Z" fill="white"/>
<path d="M55.6339 34.3168C55.761 33.833 55.3203 33.3026 54.9218 33.2038C54.5498 33.1271 51.6945 33.6617 51.3533 33.7535C50.9862 33.8518 51.15 33.5073 51.15 33.5073L51.5912 32.0164C51.5912 32.0164 54.3162 31.9117 54.7131 31.8452C55.0797 31.7793 55.1019 31.5207 55.1019 31.5207C55.1019 31.5207 55.1489 31.0941 55.1354 30.6956C55.0953 30.269 54.7537 30.3084 54.7537 30.3084C53.6999 30.1983 52.2514 30.3225 52.2514 30.3225L52.6169 29.1782C52.6169 29.1782 55.5155 29.0373 56.6179 28.7835C57.1841 28.6501 56.851 28.0949 56.851 28.0949C56.1637 26.7223 55.3716 26.7996 55.3716 26.7996C53.0916 26.7234 49.7783 27.3271 49.4171 27.5059C49.0792 27.6591 49.116 27.9135 49.5567 28.4681C50.0297 29.0524 50.8256 28.9978 50.8256 28.9978L50.127 30.4412C49.5567 30.4812 49.3609 30.6589 49.3609 30.6589C49.0321 31.0093 49.4858 32.045 49.4858 32.045C49.4858 32.045 48.4958 34.2627 49.2139 35.434C49.9849 36.6636 50.897 36.6046 50.897 36.6046C52.6326 36.7311 55.4825 34.9161 55.6345 34.3168H55.6339Z" fill="white"/>
<path d="M45.6708 25.506C45.6708 25.506 45.2669 25.3175 45.1647 25.7198C45.062 26.1179 45.2144 26.5423 45.2144 26.5423C46.2196 29.948 46.4477 31.96 46.4477 31.96C46.4477 31.96 46.4943 32.5518 46.3791 32.5848C46.2985 32.6457 46.2088 32.5615 46.2088 32.5615C46.0936 32.5658 44.9916 30.7196 44.9916 30.7196L44.7776 30.3579C43.5648 28.4036 42.8301 27.7377 42.8301 27.7377C42.6581 27.5769 42.217 27.1347 41.667 27.7443C41.1166 28.3577 40.6863 30.3281 40.5127 32.1803C40.3651 34.0287 40.4775 35.0806 40.7474 35.5245C41.0447 35.9737 41.6178 36.1271 42.0904 35.742C42.5899 35.3587 42.4959 32.9201 42.5749 31.67C42.6505 30.414 42.7743 30.6386 42.7743 30.6386C42.8846 30.6089 43.4567 31.758 43.4567 31.758C43.4567 31.758 44.9641 34.8403 45.9108 35.2965C46.87 35.7518 47.6416 35.0191 47.9335 34.3327C48.2303 33.6415 48.7348 31.3552 47.9838 28.8215C47.228 26.2885 45.6708 25.506 45.6708 25.506Z" fill="white"/>
<path d="M30.0078 32.0286C29.9688 31.1857 29.8682 29.0333 29.6325 28.0607C29.5303 27.6423 29.3611 27.2605 28.9485 27.1034C28.901 27.0855 28.8458 27.0694 28.8101 27.0634C28.5522 27.0132 28.404 27.3686 28.3343 27.5451C28.1305 28.0678 27.9834 29.3163 27.9434 29.7057C27.8222 30.8849 27.7238 33.6799 27.9288 35.1039C28.0148 35.7006 28.2116 36.0883 28.8155 36.213C29.0605 36.2638 29.5065 36.2541 29.7028 36.1288C29.8742 36.0224 29.9936 35.8151 30.0336 35.6369C30.1445 35.1407 30.1012 34.437 30.0791 33.9078C30.0526 33.283 30.0364 32.6605 30.0078 32.0286Z" fill="white"/>
<path d="M39.7556 27.3197C38.4525 26.628 36.3077 26.6264 34.9809 26.7911C33.6102 26.9606 31.7758 27.3877 30.9922 28.5126C30.6933 28.9418 30.5181 29.6017 30.6554 30.139C30.7333 30.4376 30.9485 30.6644 31.2609 30.827C31.8163 31.1159 33.6686 31.1774 34.4943 31.266C35.2723 31.3491 36.7051 31.4874 37.4951 31.8167C37.4951 31.8167 38.2428 32.0771 38.238 32.5037C38.2363 32.7143 38.0785 32.8822 37.9183 32.9961C36.7462 33.8256 35.135 34.061 33.7022 34.0378C33.2166 34.0312 32.8165 33.9546 32.3234 33.7435C32.1137 33.6516 31.8411 33.4842 31.8779 33.1981C31.9369 32.7396 32.4613 32.6268 32.8781 32.6662C33.1107 32.6872 33.4145 32.7866 33.6427 32.8757C34.5619 33.238 34.9809 33.5432 35.7897 33.42C36.0914 33.3742 37.1371 33.1478 37.2777 32.7175C37.3128 32.6127 37.2625 32.4993 37.1852 32.421C37.0749 32.3081 36.4461 32.064 36.2753 32.002C35.6595 31.7833 34.4921 31.5829 33.8433 31.5581C32.9923 31.5278 31.8216 31.7018 31.3361 32.4075C30.8988 33.0436 30.8003 34.3239 32.9717 35.4013C33.9812 35.9019 35.2037 36.1242 36.3315 36.0006C36.976 35.9267 38.8321 35.6383 39.5339 34.1636C39.9113 33.3703 39.8745 32.3108 39.4679 31.5581C39.2009 31.0619 38.8743 30.4015 36.4521 30.0969C36.065 30.0483 33.2155 29.7189 32.9539 29.6779C32.8089 29.6552 32.1418 29.5764 32.3758 29.322C32.4418 29.2486 32.644 29.1946 32.7613 29.1611C34.2575 28.7528 36.1563 28.7993 37.727 28.7113C38.0779 28.6897 38.8759 28.6416 39.2619 28.519C39.6297 28.4046 39.9329 28.1448 40.0179 27.7415C40.06 27.5271 39.9568 27.4267 39.7556 27.3197Z" fill="white"/>
<path d="M78.6219 29.1612H74.1451C74.0959 27.6158 73.9391 26.0897 73.6768 24.5891C73.632 24.3315 73.4076 24.1436 73.147 24.1436H71.9401C71.7045 24.1436 71.5261 24.3584 71.5698 24.5907C71.8515 26.0881 72.0191 27.614 72.0716 29.1612H67.5233C67.3152 29.1612 67.1465 29.3302 67.1465 29.5392V30.9102C67.1465 31.1192 67.3152 31.2882 67.5233 31.2882H72.0716C72.0191 32.8358 71.8509 34.3613 71.5698 35.8587C71.5261 36.0908 71.7045 36.3058 71.9401 36.3058H73.147C73.4076 36.3058 73.632 36.1184 73.6768 35.8603C73.9391 34.3597 74.0959 32.8336 74.1451 31.2882H78.6219C78.8301 31.2882 78.9988 31.1192 78.9988 30.9102V29.5392C78.9988 29.3302 78.8301 29.1612 78.6219 29.1612Z" fill="white"/>
<path d="M16.9758 12.5685C17.1531 12.6916 17.4019 12.6004 17.5798 12.4097C19.1153 10.7568 20.7952 9.31934 22.7087 8.01418C35.2628 -0.549541 53.6923 0.69514 64.4757 11.5479C68.0176 15.0946 69.9674 18.9015 70.9903 21.8936C71.065 22.1122 71.2693 22.2603 71.4997 22.2603H72.7378C72.9952 22.2603 73.178 22.007 73.0952 21.7623C71.7532 17.7934 69.1547 13.4368 65.3791 9.89389C54.0605 -0.754198 35.725 -1.93785 22.9487 6.76842C20.8584 8.17834 18.7817 9.98407 16.9569 12.0479C16.7768 12.2515 16.8379 12.4728 16.9753 12.5685H16.9758Z" fill="white"/>
</g>
</g>
</g>
<defs>
<clipPath id="clip0_240_103">
<rect width="79" height="43" fill="white" transform="translate(0.135742 0.983398)"/>
</clipPath>
<clipPath id="clip1_240_103">
<rect width="79" height="43" fill="white" transform="translate(0.135742 0.983398)"/>
</clipPath>
<clipPath id="clip2_240_103">
<rect width="78.7264" height="43" fill="white" transform="translate(0.272461 0.983398)"/>
</clipPath>
</defs>
</svg>
